<svg id="Layer_1" data-name="Layer 1" xmlns="http://www.w3.org/2000/svg" viewBox="0 0 414 569.53"><defs><style>.cls-1,.cls-4{fill:#fff;}.cls-2{fill:#444;}.cls-3{fill:#ed7b22;}.cls-4{stroke:#fff;stroke-width:11px;}.cls-4,.cls-5,.cls-7{stroke-miterlimit:10;}.cls-5,.cls-7{fill:none;stroke:#444;}.cls-5{stroke-linecap:round;stroke-width:5.16px;}.cls-6{opacity:0.05;}.cls-7{stroke-width:6px;}</style></defs><title>SuperHero_Scene-01</title><g id="Cloud"><polygon class="cls-1" points="6.71 90.69 6.71 71.73 20.3 62.75 20.3 51.14 31.9 43.42 51.23 41.37 57.81 45.69 76.83 15.92 99.18 6.43 126.46 5.46 161.01 26.37 173.06 49.78 178.28 67.97 184.4 89.07 167.46 105.69 54.18 105.69 13.49 101.6 6.71 90.69"/><path class="cls-2" d="M24.88,108a23.53,23.53,0,0,1-10-44.85,27.3,27.3,0,0,1,27.2-26.1,26.91,26.91,0,0,1,14.41,4.13A62.64,62.64,0,0,1,177.42,61.52,26.32,26.32,0,0,1,161.09,108Zm0-47.07a3.35,3.35,0,0,1,0,6.7,16.84,16.84,0,1,0-.5,33.68H161a19.63,19.63,0,0,0,12.69-34.17h0l-.36-.3c-.52-.45-1.09-.88-1.64-1.27l-.21-.15a19.42,19.42,0,0,0-11-3.37H160a3.35,3.35,0,0,1-.1-6.7h.58a26.18,26.18,0,0,1,10.15,2A56.21,56.21,0,0,0,61.79,45.49a27,27,0,0,1,7.55,18.79,3.35,3.35,0,0,1-6.7,0h0a20.53,20.53,0,0,0-40.83-3.15,22.5,22.5,0,0,1,3.07-.19Z"/><path class="cls-1" d="M114.85,2.66a61.37,61.37,0,0,1,61.27,59.51,25,25,0,0,1-15.05,44.5H24.88A22.21,22.21,0,0,1,16.21,64,25.87,25.87,0,0,1,57.16,43.24,61.42,61.42,0,0,1,114.85,2.66M66,66.3a2,2,0,0,1-2-2h0A21.86,21.86,0,0,0,20.3,62.74a22.67,22.67,0,0,1,4.58-.47,2,2,0,1,1,.17,4,.48.48,0,0,1-.17,0,18.18,18.18,0,0,0,0,36.35H161a21,21,0,0,0,13.22-36.8h0a19.32,19.32,0,0,0-1.74-1.35h0a20.87,20.87,0,0,0-12-3.8H160a2,2,0,0,1-.06-4h.54a24.81,24.81,0,0,1,11.71,2.92,57.53,57.53,0,0,0-112-13.76A25.76,25.76,0,0,1,68,64.25a2,2,0,0,1-2,2h0M114.85,0a64,64,0,0,0-59,39.27,28.56,28.56,0,0,0-42.25,23,24.87,24.87,0,0,0,11.27,47H161.13A27.65,27.65,0,0,0,178.74,60.9,64,64,0,0,0,114.85,0ZM63.3,45.17a54.88,54.88,0,0,1,105.75,10.2A27.54,27.54,0,0,0,160.51,54h-.6a4.7,4.7,0,0,0,.12,9.36h.48a18.12,18.12,0,0,1,10.23,3.14l.19.13a16.16,16.16,0,0,1,1.53,1.2l.48.4A18.3,18.3,0,0,1,161,100H24.88a15.51,15.51,0,0,1,0-31,4.7,4.7,0,1,0,.78-9.36,3.39,3.39,0,0,0-.78,0c-.47,0-.94,0-1.41,0A19.2,19.2,0,0,1,61.3,64.26a4.7,4.7,0,0,0,9.36,0A28.3,28.3,0,0,0,63.3,45.17Z"/></g><g id="Cloud2"><polygon class="cls-1" points="364.25 58.07 364.25 45.93 355.54 40.18 355.54 32.75 348.11 27.8 335.74 26.49 331.52 29.25 319.34 10.19 305.03 4.12 287.56 3.49 265.44 16.88 257.72 31.88 254.38 43.52 250.46 57.03 261.31 67.68 333.85 67.68 359.9 65.06 364.25 58.07"/><path class="cls-2" d="M265.38,69.16A16.85,16.85,0,0,1,254.92,39.4a40.11,40.11,0,0,1,77.43-13,17.26,17.26,0,0,1,9.23-2.65A17.47,17.47,0,0,1,359,40.45a15.07,15.07,0,0,1-6.38,28.71ZM257.3,43a12.56,12.56,0,0,0,8.16,21.86h87.15A10.79,10.79,0,0,0,353,43.3h-.39a2.15,2.15,0,0,1,0-4.29,16.13,16.13,0,0,1,2,.13,13.15,13.15,0,0,0-26.14,2,2.14,2.14,0,1,1-4.28.18.54.54,0,0,1,0-.18,17.25,17.25,0,0,1,4.83-12,36,36,0,0,0-69.73,7.64,16.89,16.89,0,0,1,6.51-1.31h.36a2.15,2.15,0,0,1-.07,4.29h-.3a12.47,12.47,0,0,0-7,2.17l-.12.08a12.27,12.27,0,0,0-1,.82l-.24.21Z"/><path class="cls-1" d="M295,1.71a39.28,39.28,0,0,1,36.94,26A16.57,16.57,0,0,1,358.16,41a14.22,14.22,0,0,1-5.54,27.31h-87.2a16,16,0,0,1-9.64-28.5A39.29,39.29,0,0,1,295,1.71M258.26,38.16a15.81,15.81,0,0,1,7.5-1.86h.36a1.29,1.29,0,0,1-.05,2.58h-.3a13.39,13.39,0,0,0-7.65,2.4h0a13.85,13.85,0,0,0-1.12.87h0a13.41,13.41,0,0,0,8.47,23.56h87.16A11.64,11.64,0,1,0,353,42.44h-.41a1.29,1.29,0,0,1-1.22-1.36,1.28,1.28,0,0,1,1.22-1.22,14.52,14.52,0,0,1,2.94.3,14,14,0,0,0-28,1,1.3,1.3,0,0,1-2.59.13v-.13a16.54,16.54,0,0,1,5-11.81,36.85,36.85,0,0,0-71.69,8.81M295,0a41,41,0,0,0-40.9,39,17.7,17.7,0,0,0,11.27,31h87.25a15.92,15.92,0,0,0,7.22-30.12,18.34,18.34,0,0,0-18.25-17,18.11,18.11,0,0,0-8.81,2.26A41,41,0,0,0,295,0ZM260.31,35.46A35.13,35.13,0,0,1,328,28.93a18.12,18.12,0,0,0-4.69,12.23,3,3,0,1,0,6,.21v-.21a12.29,12.29,0,0,1,24.21-3l-.9,0a3,3,0,0,0,0,6,9.94,9.94,0,1,1,0,19.87H265.48a11.7,11.7,0,0,1-7.67-20.3l.31-.27a12.19,12.19,0,0,1,1-.76l.13-.09a11.59,11.59,0,0,1,6.53-2h.3a3,3,0,0,0,.09-6h-.39a17.82,17.82,0,0,0-5.47.86Z"/></g><g id="Cloud2-2" data-name="Cloud2"><polygon class="cls-1" points="360.64 111.96 360.64 88.88 344.1 77.94 344.1 63.83 329.98 54.43 306.46 51.93 298.44 57.19 275.31 20.96 248.1 9.41 214.9 8.23 172.86 33.67 158.19 62.17 151.84 84.3 144.39 109.99 165.01 130.22 302.87 130.22 352.38 125.24 360.64 111.96"/><path class="cls-2" d="M172.75,133a32,32,0,0,1-19.88-56.57A76.23,76.23,0,0,1,300,51.74a32.88,32.88,0,0,1,17.54-5,33.23,33.23,0,0,1,33.1,31.77A28.64,28.64,0,0,1,338.56,133ZM157.4,83.33a23.87,23.87,0,0,0,15.5,41.55H338.53a20.5,20.5,0,1,0,.75-41q-.37,0-.75,0a4.08,4.08,0,0,1,0-8.16,33,33,0,0,1,3.72.24,25,25,0,0,0-49.67,3.84,4.08,4.08,0,1,1-8.15.33v-.33a32.87,32.87,0,0,1,9.19-22.87A68.39,68.39,0,0,0,161.1,71.45,32.17,32.17,0,0,1,173.46,69h.69a4.08,4.08,0,0,1-.12,8.15h-.58a23.78,23.78,0,0,0-13.37,4.12l-.24.17c-.69.49-1.38,1-2,1.55l-.45.4Z"/><path class="cls-1" d="M229,4.83a74.72,74.72,0,0,1,70.2,49.38,31.49,31.49,0,0,1,49.85,25.31,27,27,0,0,1-10.52,51.9H172.82A30.4,30.4,0,0,1,154.5,77.26,74.69,74.69,0,0,1,229,4.83M159.22,74.12a30.09,30.09,0,0,1,14.24-3.55h.69a2.46,2.46,0,0,1-.09,4.91h-.58a25.39,25.39,0,0,0-14.54,4.57h0c-.64.46-1.37,1-2.11,1.65h0a25.49,25.49,0,0,0,16.09,44.78H338.57a22.12,22.12,0,1,0,.78-44.23h-.78a2.46,2.46,0,0,1,0-4.91,26.76,26.76,0,0,1,5.58.58A26.6,26.6,0,0,0,291,79.79a2.46,2.46,0,1,1-4.91.26v-.26a31.5,31.5,0,0,1,9.42-22.45A70,70,0,0,0,159.27,74.09M229,1.59a77.93,77.93,0,0,0-77.74,74.1,33.64,33.64,0,0,0,21.42,58.95H338.53A30.26,30.26,0,0,0,352.26,77.4a34.87,34.87,0,0,0-34.69-32.33,34.34,34.34,0,0,0-16.75,4.31A77.92,77.92,0,0,0,229,1.59ZM163.1,69A66.78,66.78,0,0,1,291.79,56.57a34.46,34.46,0,0,0-8.93,23.25,5.7,5.7,0,0,0,11.39.4,2.67,2.67,0,0,0,0-.4,23.35,23.35,0,0,1,46-5.64c-.57,0-1.14-.05-1.71-.05a5.7,5.7,0,0,0,0,11.39,18.89,18.89,0,1,1,0,37.77H172.93A22.24,22.24,0,0,1,158.37,84.7l.57-.51c.6-.51,1.23-1,1.87-1.45l.24-.17a22.17,22.17,0,0,1,12.41-3.86H174a5.7,5.7,0,0,0,.16-11.39h-.74A33.54,33.54,0,0,0,163.08,69Z"/></g><g id="TommyGroup"><g id="Streak2"><path class="cls-2" d="M190.55,419a2.89,2.89,0,0,1-2.89-2.89V336.53a2.89,2.89,0,1,1,5.78,0v79.55A2.89,2.89,0,0,1,190.55,419Z"/><path class="cls-1" d="M190.55,334.55a2,2,0,0,1,2,2h0v79.55a2,2,0,1,1-4,0V336.53a2,2,0,0,1,2-2h0m0-1.81a3.8,3.8,0,0,0-3.8,3.79v79.55a3.8,3.8,0,1,0,7.59,0V336.53A3.79,3.79,0,0,0,190.55,332.74Z"/></g><g id="Streak3"><path class="cls-2" d="M215.31,407.77a2.9,2.9,0,0,1-2.89-2.89V325.32a2.9,2.9,0,0,1,5.79,0v79.56A2.9,2.9,0,0,1,215.31,407.77Z"/><path class="cls-1" d="M215.31,323.34a2,2,0,0,1,2,2v79.56a2,2,0,0,1-4,0V325.32a2,2,0,0,1,2-2m0-1.81a3.79,3.79,0,0,0-3.79,3.79v79.56a3.8,3.8,0,0,0,7.59,0V325.32A3.8,3.8,0,0,0,215.31,321.53Z"/></g><g id="Streak4"><path class="cls-2" d="M240.09,440.31a2.89,2.89,0,0,1-2.89-2.89V357.87a2.89,2.89,0,0,1,5.78,0v79.55A2.89,2.89,0,0,1,240.09,440.31Z"/><path class="cls-1" d="M240.09,355.88a2,2,0,0,1,2,2h0v79.55a2,2,0,1,1-4,0V357.87a2,2,0,0,1,2-2h0m0-1.8a3.8,3.8,0,0,0-3.8,3.79v79.55a3.8,3.8,0,0,0,7.59,0V357.87A3.79,3.79,0,0,0,240.09,354.08Z"/></g><g id="Streak1"><path class="cls-2" d="M167.48,365.62a2.89,2.89,0,0,1-2.89-2.89v-26.2a2.89,2.89,0,0,1,5.78,0v26.2A2.89,2.89,0,0,1,167.48,365.62Z"/><path class="cls-1" d="M167.48,334.55a2,2,0,0,1,2,2h0v26.2a2,2,0,1,1-4,0v-26.2a2,2,0,0,1,2-2h0m0-1.81a3.79,3.79,0,0,0-3.79,3.79v26.2a3.8,3.8,0,1,0,7.59,0v-26.2A3.8,3.8,0,0,0,167.48,332.74Z"/></g><g id="Streak5"><path class="cls-2" d="M259,365.62a2.89,2.89,0,0,1-2.89-2.89V328.27a2.89,2.89,0,0,1,5.78,0v34.46A2.89,2.89,0,0,1,259,365.62Z"/><path class="cls-1" d="M259,326.28a2,2,0,0,1,2,2v34.46a2,2,0,0,1-4,0V328.27a2,2,0,0,1,2-2m0-1.81a3.8,3.8,0,0,0-3.79,3.8v34.46a3.79,3.79,0,1,0,7.58,0V328.27A3.8,3.8,0,0,0,259,324.47Z"/></g><g id="Cape"><path class="cls-3" d="M179.74,204.11l70.43,2.06,18.46,114.44-1.72-.11c-6.08-.38-12.39-.58-18.7-.58-50.06,0-90.85,12.21-91.25,12.34l-2.19.66Z"/><path class="cls-1" d="M180.87,205.51l68.12,2,18,111.64c-6.37-.41-12.65-.59-18.79-.59-50.84,0-91.66,12.4-91.66,12.4l24.33-125.43m-2.26-2.82-.45,2.3L153.85,330.41,153,334.9l4.37-1.33c.1,0,10.31-3.1,26.56-6.14a356.72,356.72,0,0,1,64.3-6.13c6.29,0,12.56.19,18.62.58l3.44.22-.55-3.41-18-111.64-.36-2.25-2.28-.07-68.12-2-2.34-.07Z"/><path class="cls-2" d="M183.7,209l62.35,1.81,16.87,104.6c-4.82-.23-9.77-.34-14.71-.34a364.69,364.69,0,0,0-65.53,6.25c-9.6,1.8-17.05,3.58-21.69,4.79L183.71,209m-2.84-3.53L156.55,330.94s40.81-12.4,91.66-12.4c6.14,0,12.41.18,18.79.59L249,207.49Z"/></g><g id="Tommy"><path class="cls-4" d="M249.86,206.55V196.26a34.85,34.85,0,0,0-2.76-13.58c-1.21-21.42-18.37-20.85-18.37-20.85a25.54,25.54,0,0,0-25.35-7.25,31.63,31.63,0,0,0-23.25,33c.08,1.05.21,2.11.39,3.2a35,35,0,0,0-.43,5.51v9.86"/><polygon class="cls-1" points="190.77 166.95 181.2 188.71 181.21 208.72 181.74 215.98 181.74 218.82 184.93 219.52 214.32 223.42 248.31 218.82 248.31 200.41 247.6 189.07 242.29 177.39 233.04 170.31 190.77 166.95"/><path class="cls-3" d="M209.49,222.36l-27.37-4.06v30.39h65.93V218.3l-27.37,4.06A38.85,38.85,0,0,1,209.49,222.36Z"/><path class="cls-5" d="M220.31,189.8a8.3,8.3,0,0,1,10,.34"/><path class="cls-2" d="M209.73,197.75a4.4,4.4,0,1,0-4.42,4.4,4.4,4.4,0,0,0,4.42-4.4Zm-6.29,0a1.89,1.89,0,1,1,1.89,1.88h0a1.9,1.9,0,0,1-1.87-1.88Z"/><path class="cls-2" d="M223.7,202.15a4.4,4.4,0,1,0-4.4-4.4h0A4.4,4.4,0,0,0,223.7,202.15Zm0-6.29a1.89,1.89,0,1,1-1.88,1.89h0a1.89,1.89,0,0,1,1.88-1.89Z"/><path class="cls-2" d="M215.07,161.92a34.88,34.88,0,0,0-34.89,34.88h0v54.37H250V196.81a34.89,34.89,0,0,0-34.89-34.89ZM246.81,248H183.32V196.81a31.75,31.75,0,0,1,63.49,0Z"/><path class="cls-2" d="M215,211.62a9,9,0,0,1-6.35-2.75l-.08-.08a1.57,1.57,0,1,1,2.26-2.19l.08.09a5.92,5.92,0,0,0,8.36.14,1.57,1.57,0,1,1,2.28,2.16l-.1.11A9,9,0,0,1,215,211.62Z"/><line class="cls-5" x1="201.63" y1="185.5" x2="211.04" y2="191.06"/><path class="cls-2" d="M212.38,218.3a4.43,4.43,0,0,1-3.12-1.35l0,0a.77.77,0,0,1,.09-1.09.78.78,0,0,1,1,0l0,0a2.9,2.9,0,0,0,4.11.07.78.78,0,0,1,1.07,1.12A4.49,4.49,0,0,1,212.38,218.3Z"/><path class="cls-2" d="M217.77,218.3a4.43,4.43,0,0,1-3.12-1.35l0,0a.77.77,0,0,1,.09-1.09.78.78,0,0,1,1,0l0,0a2.9,2.9,0,0,0,4.11.07.78.78,0,0,1,1.07,1.12A4.49,4.49,0,0,1,217.77,218.3Z"/><path class="cls-2" d="M228.83,162.37a25.58,25.58,0,0,0-25.36-7.23,31.65,31.65,0,0,0-23.25,33c.09,1.11.23,2.26.44,3.45,0,0,16-23,47.44-16.5h0c10.54-3.18,19.15,8.72,19.15,8.72C246.27,161.79,228.83,162.37,228.83,162.37Z"/><g class="cls-6"><path class="cls-2" d="M233.72,231h-10.3a2.58,2.58,0,0,1-1.21-.3l-5-2.61a1,1,0,0,1,1-1.85h0l5,2.62a.5.5,0,0,0,.24.06h10.3a1,1,0,0,1,0,2.08Z"/><path class="cls-2" d="M195.41,230a1,1,0,0,1,1-1h10.3a.5.5,0,0,0,.24-.06l5-2.62a1,1,0,0,1,1,1.85l-5,2.61a2.58,2.58,0,0,1-1.21.3H196.45a1,1,0,0,1-1-1Z"/><path class="cls-2" d="M206.73,237.2a1,1,0,1,1,0-2.09H214v-1.7a1,1,0,0,1,2.09,0v1.69h7a1,1,0,1,1,0,2.08h-7v3.66h7a1,1,0,1,1,0,2.08h-7v1.7a1,1,0,0,1-2.09,0v-1.7h-7.31a1,1,0,1,1,0-2.08H214V237.2Z"/></g><g id="White_Border" data-name="White Border"><path class="cls-1" d="M220.9,229.47V241.1H209.27V229.47H220.9m1-1H208.3v13.59h13.58V228.49Z"/><path id="O" class="cls-1" d="M217.47,235.51a2.31,2.31,0,1,1-2.37,2.31,2.21,2.21,0,0,1,2.37-2.31m0,3.72a1.42,1.42,0,0,0,.07-2.83,1.42,1.42,0,0,0-1.45,1.38v0a1.33,1.33,0,0,0,1.24,1.41h.14"/><path id="G" class="cls-1" d="M214.63,237.41h-1.72v.89h.78V239a1.91,1.91,0,0,1-.91.22,1.42,1.42,0,0,1,0-2.83,1.39,1.39,0,0,1,1.07.42l.69-.75a2.52,2.52,0,0,0-1.75-.56,2.31,2.31,0,1,0,0,4.61,3.91,3.91,0,0,0,1.84-.42Z"/><path id="O-2" class="cls-1" d="M217.4,230.55a2.31,2.31,0,1,1-2.37,2.3,2.21,2.21,0,0,1,2.37-2.3m0,3.71a1.41,1.41,0,0,0,.07-2.82,1.42,1.42,0,0,0-1.45,1.38v0a1.32,1.32,0,0,0,1.23,1.41h.15"/><polygon id="T" class="cls-1" points="212.18 231.54 210.5 231.54 210.5 230.69 214.82 230.69 214.82 231.54 213.15 231.54 213.15 235.04 212.18 235.04 212.18 231.54"/></g><polyline class="cls-7" points="181.96 218.94 214.82 223.44 248.07 218.94"/><path class="cls-2" d="M234.1,170.86c-1.69,14.59-13.77,12.66-13.77,12.66,7.06-1.83,6-9,6-9"/></g><g id="Phone"><rect class="cls-2" x="255.34" y="161.09" width="17.31" height="27.39" rx="2.11" ry="2.11"/><path class="cls-1" d="M270.54,162.13a1.07,1.07,0,0,1,1.07,1.07v23.17a1.07,1.07,0,0,1-1.07,1.08H257.45a1.07,1.07,0,0,1-1.07-1.08V163.2a1.07,1.07,0,0,1,1.07-1.07h13.09m0-2.07H257.45a3.15,3.15,0,0,0-3.14,3.14v23.17a3.14,3.14,0,0,0,3.14,3.14h13.09a3.14,3.14,0,0,0,3.14-3.14V163.2A3.15,3.15,0,0,0,270.54,160.06Z"/><rect class="cls-1" x="258.46" y="164.73" width="11.06" height="18.37" rx="0.53" ry="0.53"/><path class="cls-3" d="M266.2,171.7a3.79,3.79,0,0,0-2.81-.65,3.21,3.21,0,0,0-1.93.89,1.61,1.61,0,0,0-.52,1.17H267A1.76,1.76,0,0,0,266.2,171.7Zm-4,.79a.22.22,0,0,1-.16-.15.27.27,0,0,1,.15-.18c.06,0,.14.08.28.16-.13.08-.2.17-.27.17Zm.6-.55a.25.25,0,0,1-.16-.17.22.22,0,0,1,.16-.15c.06,0,.14.08.27.16-.13.08-.21.17-.27.16Zm.61.55s-.16-.09-.16-.15.06-.14.14-.28c.1.13.19.2.18.26a.29.29,0,0,1-.16.17ZM264,172c-.08-.13-.16-.2-.16-.27s.12-.16.17-.15a.25.25,0,0,1,.17.16C264.15,171.84,264.05,171.92,264,172Zm.61.52c-.08-.11-.17-.18-.16-.23s.11-.12.18-.18.14.12.15.19S264.65,172.46,264.57,172.56Zm.61-.62a.23.23,0,0,1-.16-.17s.1-.15.15-.15.15.08.28.15C265.32,171.86,265.24,172,265.18,171.94Zm.59.54c-.06,0-.16-.11-.15-.15a.29.29,0,0,1,.17-.17c.06,0,.13.09.26.18C265.91,172.43,265.84,172.49,265.77,172.48Z"/><path class="cls-3" d="M266.33,174.21c0,.21-.07.39-.32.41s-.32-.2-.34-.4h-.44v.46a.33.33,0,0,1-.33.34.32.32,0,0,1-.32-.31,0,0,0,0,1,0,0v-.45H261a1.55,1.55,0,0,0,1.32,1.74h.14c1,0,2.09,0,3.13,0A1.53,1.53,0,0,0,267,174.4a1.1,1.1,0,0,0,0-.18Z"/><path class="cls-2" d="M267.16,173.4c-.05,0-.15,0-.23,0H261a.57.57,0,0,0-.26,0c-.06,0-.2.18-.2.28s.11.19.2.27.14,0,.21,0h6.19a.5.5,0,0,0,.22-.28C267.38,173.58,267.26,173.46,267.16,173.4Z"/></g></g></svg>