<svg xmlns="http://www.w3.org/2000/svg" viewBox="0 0 350.55 531.86"><defs><style>.cls-1{fill:#ed7b22;}.cls-2,.cls-4{fill:#fff;}.cls-3{fill:#444;}.cls-4{stroke:#fff;stroke-width:11px;}.cls-4,.cls-5,.cls-7{stroke-miterlimit:10;}.cls-5,.cls-7{fill:none;stroke:#444;}.cls-5{stroke-linecap:round;stroke-width:5.16px;}.cls-6{opacity:0.05;}.cls-7{stroke-width:6px;}</style></defs><title>SuperheroTom</title><g id="cape"><path class="cls-1" d="M864.55,335,1069.1,341l53.62,332.43-5-.32c-17.69-1.13-36-1.69-54.34-1.69-145.31,0-263.84,35.46-265,35.82L792,709.16Z" transform="translate(-786.82 -183.06)"/><path class="cls-2" d="M867.83,339.14l197.85,5.75L1118,669.11c-18.52-1.18-36.76-1.7-54.59-1.7-147.65,0-266.18,36-266.18,36l70.63-364.27m-6.56-8.2L860,337.62,789.34,701.88l-2.52,13,12.7-3.86c.3-.09,30-9,77.14-17.84,43.48-8.13,111.17-17.81,186.72-17.81,18.29,0,36.48.56,54.08,1.68l10,.63-1.59-9.89-52.3-324.21-1-6.53-6.61-.2-197.84-5.75-6.8-.2Z" transform="translate(-786.82 -183.06)"/><path class="cls-3" d="M876,349.38l181.09,5.27,49,303.78c-14-.68-28.36-1-42.74-1-77,0-146,9.88-190.3,18.17-27.88,5.21-49.51,10.4-63,13.9L876,349.38m-8.2-10.24L797.2,703.41s118.53-36,266.18-36c17.83,0,36.07.52,54.59,1.7l-52.29-324.22-197.85-5.75Z" transform="translate(-786.82 -183.06)"/></g><g id="Layer_1" data-name="Layer 1"><path class="cls-4" d="M1068.19,342.15V312.28a101.18,101.18,0,0,0-8-39.45c-3.58-62.22-53.4-60.56-53.4-60.56s-28.13-33.19-73.63-21c-42.45,11.33-71,51.92-67.53,95.72q.36,4.53,1.15,9.29a102.12,102.12,0,0,0-1.27,16V340.9" transform="translate(-786.82 -183.06)"/><polygon class="cls-2" points="109.77 44.08 81.98 107.28 82.01 165.41 83.55 186.49 83.55 194.72 92.81 196.77 178.15 208.08 276.86 194.72 276.86 141.25 274.8 108.34 259.38 74.41 232.54 53.85 109.77 44.08"/><path class="cls-1" d="M951,388l-79.48-11.74v88.24h191.46V376.29L983.44,388A111.25,111.25,0,0,1,951,388Z" transform="translate(-786.82 -183.06)"/><path class="cls-5" d="M982.36,293.5a24.12,24.12,0,0,1,29.13,1.05" transform="translate(-786.82 -183.06)"/><path class="cls-3" d="M951.63,316.59a12.78,12.78,0,1,0-12.77,12.78A12.78,12.78,0,0,0,951.63,316.59Zm-18.25,0a5.48,5.48,0,1,1,5.48,5.48A5.48,5.48,0,0,1,933.38,316.59Z" transform="translate(-786.82 -183.06)"/><path class="cls-3" d="M992.22,329.37a12.78,12.78,0,1,0-12.78-12.78A12.78,12.78,0,0,0,992.22,329.37Zm0-18.25a5.48,5.48,0,1,1-5.48,5.47A5.48,5.48,0,0,1,992.22,311.12Z" transform="translate(-786.82 -183.06)"/><path class="cls-3" d="M967.15,212.54A101.32,101.32,0,0,0,865.83,313.86V471.77h202.64V313.86A101.32,101.32,0,0,0,967.15,212.54Zm92.19,250.1H875V313.86a92.19,92.19,0,1,1,184.38,0Z" transform="translate(-786.82 -183.06)"/><path class="cls-3" d="M967.07,356.89a26.24,26.24,0,0,1-18.45-8l-.23-.24A4.57,4.57,0,1,1,955,342.3l.23.24a17.19,17.19,0,0,0,24.27.43,4.56,4.56,0,0,1,6.34,6.56A26.19,26.19,0,0,1,967.07,356.89Z" transform="translate(-786.82 -183.06)"/><line class="cls-5" x1="141.29" y1="97.97" x2="168.64" y2="114.12"/><path class="cls-3" d="M959.35,376.28a12.85,12.85,0,0,1-9.07-3.94l-.12-.11a2.25,2.25,0,1,1,3.23-3.12l.12.12a8.45,8.45,0,0,0,11.93.21,2.24,2.24,0,1,1,3.11,3.23A12.87,12.87,0,0,1,959.35,376.28Z" transform="translate(-786.82 -183.06)"/><path class="cls-3" d="M975,376.28a12.85,12.85,0,0,1-9.07-3.94l-.12-.11a2.25,2.25,0,1,1,3.23-3.12l.11.12a8.47,8.47,0,0,0,11.94.21,2.24,2.24,0,1,1,3.11,3.23A12.87,12.87,0,0,1,975,376.28Z" transform="translate(-786.82 -183.06)"/><path class="cls-3" d="M1007.11,213.85s-28.13-33.19-73.63-21c-42.45,11.33-71,51.92-67.53,95.72q.38,4.86,1.26,10s46.32-66.86,137.79-47.9v0c30.62-9.24,55.6,25.32,55.6,25.32C1057.75,212.15,1007.11,213.85,1007.11,213.85Z" transform="translate(-786.82 -183.06)"/><g class="cls-6"><path class="cls-3" d="M1021.32,413.19H991.41a7.65,7.65,0,0,1-3.51-.86l-14.53-7.59a3,3,0,0,1,2.8-5.37L990.7,407a1.5,1.5,0,0,0,.71.18h29.91a3,3,0,1,1,0,6.05Z" transform="translate(-786.82 -183.06)"/><path class="cls-3" d="M910.05,410.17a3,3,0,0,1,3-3H943a1.51,1.51,0,0,0,.72-.18l14.52-7.59a3,3,0,0,1,2.81,5.37l-14.53,7.59a7.69,7.69,0,0,1-3.52.86H913.07A3,3,0,0,1,910.05,410.17Z" transform="translate(-786.82 -183.06)"/><path class="cls-3" d="M942.92,431.16a3,3,0,1,1,0-6.06h21.25v-4.94a3,3,0,0,1,6.05,0v4.94h20.44a3,3,0,0,1,0,6.06H970.22v10.6h20.44a3,3,0,0,1,0,6.06H970.22v4.94a3,3,0,0,1-6.05,0v-4.94H942.92a3,3,0,1,1,0-6.06h21.25v-10.6Z" transform="translate(-786.82 -183.06)"/></g><g id="White_Border" data-name="White Border"><path class="cls-2" d="M984.08,408.72v33.76H950.31V408.72h33.77m2.84-2.84H947.47v39.44h39.45V405.88Z" transform="translate(-786.82 -183.06)"/><path id="O" class="cls-2" d="M974.11,426.26c4,0,6.88,2.61,6.88,6.69s-2.9,6.7-6.88,6.7-6.87-2.61-6.87-6.7,2.9-6.69,6.87-6.69m0,10.8a4.11,4.11,0,1,0-4-4.11,3.85,3.85,0,0,0,4,4.11" transform="translate(-786.82 -183.06)"/><path id="G" class="cls-2" d="M965.86,431.77h-5v2.59h2.28v2.07a5.57,5.57,0,0,1-2.64.63,4.11,4.11,0,0,1,0-8.21,3.91,3.91,0,0,1,3.09,1.21l2-2.16a7.22,7.22,0,0,0-5.07-1.64c-4,0-6.87,2.61-6.87,6.69s2.89,6.7,6.87,6.7a11.32,11.32,0,0,0,5.34-1.23Z" transform="translate(-786.82 -183.06)"/><path id="O-2" data-name="O" class="cls-2" d="M973.92,411.85c4,0,6.87,2.61,6.87,6.69s-2.9,6.69-6.87,6.69-6.88-2.61-6.88-6.69,2.9-6.69,6.88-6.69m0,10.79a4.1,4.1,0,1,0-4-4.1,3.84,3.84,0,0,0,4,4.1" transform="translate(-786.82 -183.06)"/><polygon id="T" class="cls-2" points="171.94 231.67 167.07 231.67 167.07 229.19 179.62 229.19 179.62 231.67 174.75 231.67 174.75 241.85 171.94 241.85 171.94 231.67"/></g><polyline class="cls-7" points="84.18 195.08 179.62 208.16 276.18 195.08"/><path class="cls-3" d="M1022.42,238.49c-4.91,42.38-40.06,36.77-40.06,36.77,20.58-5.29,17.57-26.2,17.57-26.2" transform="translate(-786.82 -183.06)"/></g><g id="phone"><rect class="cls-3" x="297.28" y="27.08" width="50.27" height="79.54" rx="6.12"/><path class="cls-2" d="M1128.25,213.14a3.12,3.12,0,0,1,3.12,3.12v67.3a3.12,3.12,0,0,1-3.12,3.12h-38a3.12,3.12,0,0,1-3.12-3.12v-67.3a3.12,3.12,0,0,1,3.12-3.12h38m0-6h-38a9.13,9.13,0,0,0-9.12,9.12v67.3a9.13,9.13,0,0,0,9.12,9.12h38a9.13,9.13,0,0,0,9.12-9.12v-67.3a9.13,9.13,0,0,0-9.12-9.12Z" transform="translate(-786.82 -183.06)"/><rect class="cls-2" x="306.36" y="37.65" width="32.11" height="53.34" rx="1.54"/><path class="cls-1" d="M1115.64,240.93a11.07,11.07,0,0,0-8.14-1.86,9.42,9.42,0,0,0-5.63,2.6,4.81,4.81,0,0,0-1.51,3.4H1118A5.08,5.08,0,0,0,1115.64,240.93Zm-11.73,2.29c-.16,0-.48-.29-.46-.42a.71.71,0,0,1,.44-.51c.18,0,.41.21.81.44C1104.31,243,1104.11,243.22,1103.91,243.22Zm1.75-1.57a.77.77,0,0,1-.48-.51c0-.13.3-.45.47-.45s.41.24.78.48C1106.06,241.41,1105.84,241.67,1105.66,241.65Zm1.75,1.57c-.1,0-.43-.26-.45-.42s.19-.41.41-.82c.28.38.55.58.53.75A.75.75,0,0,1,1107.41,243.22Zm1.73-1.3c-.23-.37-.46-.58-.45-.78s.34-.46.47-.44a.77.77,0,0,1,.51.48C1109.69,241.36,1109.41,241.57,1109.14,241.92Zm1.76,1.53c-.22-.32-.48-.53-.44-.68s.32-.34.49-.51c.16.18.42.35.45.55S1111.15,243.15,1110.9,243.45Zm1.79-1.8a.76.76,0,0,1-.49-.51c0-.13.29-.44.46-.44s.42.22.8.46C1113.09,241.41,1112.87,241.67,1112.69,241.65Zm1.71,1.57c-.17,0-.46-.33-.44-.45a.73.73,0,0,1,.49-.48c.18,0,.39.24.77.5C1114.81,243,1114.59,243.23,1114.4,243.22Z" transform="translate(-786.82 -183.06)"/><path class="cls-1" d="M1116,248.24c-.07.58-.21,1.14-.93,1.17s-.94-.59-1-1.15h-1.29v.65c0,.23,0,.46,0,.68,0,.61-.42,1-1,1a.91.91,0,0,1-.91-1c0-.43,0-.85,0-1.31h-10.5a4.47,4.47,0,0,0,4.24,5.08c3,.07,6.07.07,9.1,0a4.4,4.4,0,0,0,4.18-5.09Z" transform="translate(-786.82 -183.06)"/><path class="cls-3" d="M1118.44,245.87c-.15-.12-.45-.05-.68-.05h-17.15c-.25,0-.58-.06-.75.06s-.59.52-.59.79.33.59.58.81.4.05.61.05h17.43c.18,0,.44.06.54,0,.27-.24.65-.54.65-.82S1118.72,246.08,1118.44,245.87Z" transform="translate(-786.82 -183.06)"/></g></svg>