<svg id="Layer_1" data-name="Layer 1" xmlns="http://www.w3.org/2000/svg" viewBox="0 0 743 640.86"><defs><style>.cls-1{fill:#ed7b22;}.cls-2,.cls-4{fill:#fff;}.cls-3{fill:#444;}.cls-4{stroke:#fff;stroke-width:11px;}.cls-4,.cls-5,.cls-7{stroke-miterlimit:10;}.cls-5,.cls-7{fill:none;stroke:#444;}.cls-5{stroke-linecap:round;stroke-width:5.16px;}.cls-6{opacity:0.05;}.cls-7{stroke-width:6px;}</style></defs><title>SuperheroTom_Resized</title><g id="cape"><path class="cls-1" d="M366.26,293.94l76.81,2.26L463.21,421l-1.88-.12c-6.64-.42-13.52-.63-20.4-.63-54.57,0-99.08,13.31-99.52,13.45l-2.4.72Z"/><path class="cls-2" d="M367.49,295.5l74.3,2.16,19.65,121.75c-7-.44-13.81-.64-20.5-.64-55.45,0-100,13.52-100,13.52L367.5,295.5M365,292.42l-.49,2.51L338,431.72l-.95,4.88,4.77-1.45c.11,0,11.26-3.38,29-6.7a390.26,390.26,0,0,1,70.12-6.69c6.86,0,13.7.21,20.3.63l3.76.24-.6-3.71L444.75,297.16l-.37-2.45-2.49-.07-74.29-2.16-2.55-.08Z"/><path class="cls-3" d="M370.56,299.34l68,2L457,415.4c-5.26-.26-10.66-.38-16.06-.38a397.49,397.49,0,0,0-71.46,6.83c-10.47,1.95-18.59,3.9-23.66,5.22l24.77-127.73m-3.08-3.84L341,432.29s44.51-13.52,100-13.52c6.69,0,13.54.2,20.5.64L441.79,297.66l-74.3-2.16Z"/></g><g id="tommy"><path class="cls-4" d="M442.73,296.63V285.41a38,38,0,0,0-3-14.81c-1.35-23.37-20.06-22.75-20.06-22.75S409.11,235.39,392,240a34.5,34.5,0,0,0-25.36,35.94c.09,1.14.24,2.3.44,3.49a37.86,37.86,0,0,0-.48,6v10.75"/><polygon class="cls-2" points="378.29 253.44 367.86 277.17 367.87 299 368.44 306.92 368.44 310.01 371.92 310.78 403.97 315.02 441.04 310.01 441.04 289.93 440.26 277.57 434.47 264.83 424.39 257.11 378.29 253.44"/><path class="cls-1" d="M398.72,313.85l-29.84-4.41v33.13h71.9V309.45l-29.87,4.4A42.2,42.2,0,0,1,398.72,313.85Z"/><path class="cls-5" d="M410.5,278.36a9.05,9.05,0,0,1,10.94.39"/><path class="cls-3" d="M399,287a4.8,4.8,0,1,0-4.8,4.8h0A4.8,4.8,0,0,0,399,287Zm-6.85,0a2.06,2.06,0,1,1,2.06,2.06h0A2.06,2.06,0,0,1,392.11,287Z"/><path class="cls-3" d="M414.2,291.83a4.8,4.8,0,1,0-4.8-4.8,4.8,4.8,0,0,0,4.8,4.8Zm0-6.86a2.06,2.06,0,1,1-2.05,2.06h0A2.05,2.05,0,0,1,414.2,285Z"/><path class="cls-3" d="M404.79,248A38.06,38.06,0,0,0,366.74,286h0v59.3h76.1V286A38.06,38.06,0,0,0,404.79,248Zm34.62,93.93H370.18V286a34.62,34.62,0,0,1,69.24,0Z"/><path class="cls-3" d="M404.76,302.16a9.85,9.85,0,0,1-6.93-3l-.09-.09a1.73,1.73,0,1,1,2.49-2.39l.08.09a6.47,6.47,0,0,0,9.12.17,1.71,1.71,0,0,1,2.38,2.46A9.85,9.85,0,0,1,404.76,302.16Z"/><line class="cls-5" x1="390.13" y1="273.68" x2="400.4" y2="279.74"/><path class="cls-3" d="M401.86,309.44a4.8,4.8,0,0,1-3.41-1.48l0,0a.84.84,0,0,1-.06-1.19.85.85,0,0,1,1.2-.06l.07.08.05.05a3.18,3.18,0,0,0,4.48.08.83.83,0,0,1,1.19,0,.84.84,0,0,1,0,1.19A4.8,4.8,0,0,1,401.86,309.44Z"/><path class="cls-3" d="M407.74,309.44a4.78,4.78,0,0,1-3.41-1.48l0,0a.84.84,0,0,1,1.13-1.25l.08.08,0,.05a3.18,3.18,0,0,0,4.48.08.84.84,0,0,1,1.17,1.21A4.82,4.82,0,0,1,407.74,309.44Z"/><path class="cls-3" d="M419.79,248.45s-10.56-12.47-27.65-7.89a34.5,34.5,0,0,0-25.35,35.95c.09,1.21.25,2.47.47,3.75.33,1.93,17.39-25.11,51.74-18h0c11.5-3.47,20.88,9.51,20.88,9.51C438.81,247.81,419.79,248.45,419.79,248.45Z"/><g class="cls-6"><path class="cls-3" d="M425.13,323.31H413.9a3,3,0,0,1-1.32-.33l-5.46-2.85a1.14,1.14,0,1,1,1.06-2l5.45,2.86a.64.64,0,0,0,.27.07h11.23a1.14,1.14,0,1,1,0,2.27Z"/><path class="cls-3" d="M383.35,322.17a1.13,1.13,0,0,1,1.12-1.13h11.25A.63.63,0,0,0,396,321l5.45-2.85a1.14,1.14,0,1,1,1.06,2h0L397,323a2.9,2.9,0,0,1-1.32.33H384.48a1.13,1.13,0,0,1-1.13-1.12Z"/><path class="cls-3" d="M395.69,330.05a1.14,1.14,0,1,1,0-2.27h8v-1.86a1.14,1.14,0,0,1,2.27,0v1.86h7.68a1.14,1.14,0,1,1,0,2.27h-7.68v4h7.68a1.14,1.14,0,0,1,0,2.28h-7.68v1.85a1.14,1.14,0,1,1-2.27,0v-1.85h-8a1.14,1.14,0,0,1,0-2.28h8v-4Z"/></g><g id="White_Border" data-name="White Border"><path class="cls-2" d="M411.15,321.63V334.3H398.46V321.63h12.69m1.06-1.07H397.4v14.81h14.81V320.56Z"/><path id="O" class="cls-2" d="M407.4,328.21a2.52,2.52,0,1,1-2.58,2.52,2.43,2.43,0,0,1,2.58-2.52m0,4.06a1.55,1.55,0,1,0-1.5-1.59v.05a1.46,1.46,0,0,0,1.34,1.54h.16"/><path id="G" class="cls-2" d="M404.3,330.28h-1.87v1h.85V332a2.1,2.1,0,0,1-1,.24,1.54,1.54,0,0,1,0-3.08,1.44,1.44,0,0,1,1.16.45l.75-.81a2.73,2.73,0,0,0-1.9-.62,2.52,2.52,0,1,0,0,5,4.2,4.2,0,0,0,2-.46Z"/><path id="O-2" class="cls-2" d="M407.33,322.8a2.52,2.52,0,1,1-2.58,2.51,2.42,2.42,0,0,1,2.58-2.51m0,4.05a1.54,1.54,0,1,0-1.5-1.57v0a1.43,1.43,0,0,0,1.34,1.54h.16"/><polygon id="T" class="cls-2" points="401.64 323.88 399.81 323.88 399.81 322.95 404.52 322.95 404.52 323.88 402.69 323.88 402.69 327.71 401.64 327.71 401.64 323.88"/></g><polyline class="cls-7" points="368.68 310.14 404.52 315.06 440.78 310.14"/><path class="cls-3" d="M425.54,257.7c-1.84,15.91-15,13.81-15,13.81,7.73-2,6.6-9.84,6.6-9.84"/></g><g id="phone"><rect class="cls-3" x="448.71" y="247.05" width="18.88" height="29.87" rx="2.3" ry="2.3"/><path class="cls-2" d="M465.29,248.18a1.17,1.17,0,0,1,1.17,1.17v25.28a1.18,1.18,0,0,1-1.17,1.17H451a1.18,1.18,0,0,1-1.18-1.17V249.35a1.17,1.17,0,0,1,1.18-1.17h14.27m0-2.25H451a3.43,3.43,0,0,0-3.43,3.42v25.28a3.43,3.43,0,0,0,3.43,3.42h14.27a3.42,3.42,0,0,0,3.42-3.42V249.35A3.42,3.42,0,0,0,465.29,245.93Z"/><rect class="cls-2" x="452.12" y="251.02" width="12.06" height="20.03" rx="0.58" ry="0.58"/><path class="cls-1" d="M460.55,258.62a4.1,4.1,0,0,0-3.06-.7,3.56,3.56,0,0,0-2.11,1,1.85,1.85,0,0,0-.57,1.28h6.63A1.9,1.9,0,0,0,460.55,258.62Zm-4.4.86c-.06,0-.18-.11-.18-.16a.27.27,0,0,1,.17-.19c.07,0,.15.08.3.16-.14.1-.22.19-.29.19Zm.65-.59a.34.34,0,0,1-.18-.19.28.28,0,0,1,.18-.17c.06,0,.15.09.29.18-.14.09-.22.18-.29.18Zm.66.59a.29.29,0,0,1-.17-.16c0-.06.07-.16.16-.31.1.14.2.22.19.28a.27.27,0,0,1-.18.19Zm.65-.49c-.09-.14-.17-.22-.17-.29s.13-.18.18-.17a.29.29,0,0,1,.19.18c0,.07-.1.15-.2.28Zm.66.57c-.08-.12-.18-.2-.16-.25s.12-.13.18-.19.16.13.17.2-.09.13-.19.24Zm.67-.67a.29.29,0,0,1-.18-.19c0-.05.11-.17.17-.17s.16.08.3.17c-.14.1-.22.19-.29.19Zm.65.59c-.07,0-.18-.13-.17-.17a.27.27,0,0,1,.18-.18c.07,0,.15.09.29.18-.15.08-.23.17-.3.17Z"/><path class="cls-1" d="M460.69,261.36c0,.22-.08.43-.35.44s-.36-.22-.38-.43h-.48v.5a.35.35,0,0,1-.38.37.34.34,0,0,1-.34-.34v-.52h-3.94a1.68,1.68,0,0,0,1.43,1.89h.16c1.13,0,2.28,0,3.42,0a1.65,1.65,0,0,0,1.59-1.71c0-.07,0-.13,0-.2Z"/><path class="cls-3" d="M461.6,260.47c-.05,0-.17,0-.25,0h-6.44c-.1,0-.22,0-.28,0s-.23.19-.23.29.13.22.22.31.15,0,.23,0h6.55c.06,0,.16,0,.2,0s.24-.2.24-.3S461.71,260.55,461.6,260.47Z"/></g></svg>