<svg xmlns="http://www.w3.org/2000/svg" viewBox="0 0 333.47 193.78"><defs><style>.cls-1{fill:#fff;}.cls-2{fill:#444;}</style></defs><title>Asset 3</title><g id="Layer_2" data-name="Layer 2"><g id="phone"><polygon class="cls-1" points="321.6 160.73 321.6 127.12 297.52 111.2 297.52 90.64 276.95 76.94 242.71 73.31 231.03 80.97 197.33 28.21 157.71 11.39 109.38 9.67 48.15 46.73 26.8 88.22 17.53 120.44 6.7 157.85 36.71 187.31 237.47 187.31 309.58 180.06 321.6 160.73"/><path class="cls-2" d="M48,191.4A46.63,46.63,0,0,1,19.05,109,111,111,0,0,1,233.34,73a47.83,47.83,0,0,1,25.54-7.34,48.42,48.42,0,0,1,48.21,46.26,41.72,41.72,0,0,1-17.69,79.5ZM25.63,119a34.77,34.77,0,0,0,22.59,60.5l241.18,0a29.85,29.85,0,0,0,0-59.69,5.94,5.94,0,1,1,0-11.87,41.15,41.15,0,0,1,5.43.36,36.38,36.38,0,0,0-72.33,5.58,5.94,5.94,0,0,1-11.88,0A47.86,47.86,0,0,1,224,80.62a99.49,99.49,0,0,0-94.06-66.87c-50.42,0-93.1,38.32-98.91,88a46.53,46.53,0,0,1,18-3.63h1A5.94,5.94,0,0,1,49.88,110H49a34.53,34.53,0,0,0-19.47,6l-.35.24c-1,.71-2,1.47-2.9,2.27l-.66.57Z"/><path class="cls-1" d="M129.94,4.72A108.82,108.82,0,0,1,232.18,76.63a45.86,45.86,0,0,1,72.59,36.85,39.36,39.36,0,0,1-15.37,75.59L48.12,189H48a44.28,44.28,0,0,1-26.67-78.87A108.75,108.75,0,0,1,129.94,4.72M28.28,105.62A44.09,44.09,0,0,1,49,100.45h1a3.58,3.58,0,0,1-.12,7.15H49a36.94,36.94,0,0,0-21.18,6.66h0c-1,.67-2,1.47-3.08,2.41h0a37.13,37.13,0,0,0,23.43,65.22l241.24,0a32.21,32.21,0,0,0,0-64.41,3.58,3.58,0,1,1,0-7.15,39.52,39.52,0,0,1,8.12.85,38.74,38.74,0,0,0-77.38,2.73,3.58,3.58,0,0,1-7.16,0A45.75,45.75,0,0,1,226.7,81.24,101.95,101.95,0,0,0,28.28,105.62M129.94,0A113.48,113.48,0,0,0,16.73,107.9a49,49,0,0,0,31.21,85.86h.13l241.33,0a44.07,44.07,0,0,0,20-83.36,50.79,50.79,0,0,0-50.49-47.11,50.15,50.15,0,0,0-24.38,6.28A113.54,113.54,0,0,0,129.94,0Zm-96,98.14A97.26,97.26,0,0,1,221.3,80.06a50.16,50.16,0,0,0-13,33.87,8.3,8.3,0,0,0,16.59,0,34,34,0,0,1,67-8.23c-.83,0-1.66-.07-2.49-.07a8.3,8.3,0,1,0,0,16.59,27.49,27.49,0,0,1,0,55l-241.18,0A32.4,32.4,0,0,1,27,121l.84-.73c.87-.74,1.78-1.46,2.72-2.12l.34-.24A32.18,32.18,0,0,1,49,112.32h.85a8.3,8.3,0,0,0,.22-16.59H49A48.91,48.91,0,0,0,33.9,98.14Z"/></g></g></svg>