<svg xmlns="http://www.w3.org/2000/svg" viewBox="0 0 520.78 302.63"><defs><style>.cls-1{fill:#fff;}.cls-2{fill:#444;}</style></defs><title>Asset 2</title><g id="Layer_2" data-name="Layer 2"><g id="phone"><polygon class="cls-1" points="18.54 251 18.54 198.52 56.15 173.66 56.15 141.54 88.27 120.16 141.75 114.49 159.99 126.45 212.61 44.06 274.48 17.79 349.97 15.1 445.59 72.97 478.93 137.77 493.4 188.1 510.32 246.52 463.44 292.52 149.92 292.52 37.32 281.2 18.54 251"/><path class="cls-2" d="M68.83,298.94A65.14,65.14,0,0,1,41.21,174.8a75.59,75.59,0,0,1,75.28-72.24A74.63,74.63,0,0,1,156.38,114,173.35,173.35,0,0,1,491,170.27a72.82,72.82,0,0,1-45.2,128.63Zm0-130.29a9.27,9.27,0,0,1,0,18.54,46.61,46.61,0,1,0,0,93.21l376.74,0a54.3,54.3,0,0,0,35.11-94.55h0l-1-.83c-1.44-1.24-3-2.43-4.53-3.53l-.57-.41a54,54,0,0,0-30.38-9.33l-1.19,0h-.13a9.27,9.27,0,0,1-.28-18.54l1.6,0a72.91,72.91,0,0,1,28.11,5.67A155.56,155.56,0,0,0,171,125.9a74.74,74.74,0,0,1,20.89,52,9.27,9.27,0,1,1-18.54,0,56.82,56.82,0,0,0-113-8.72A65.15,65.15,0,0,1,68.83,168.65Z"/><path class="cls-1" d="M317.85,7.37c91.88,0,166.93,73.43,169.56,164.69a69.15,69.15,0,0,1-41.65,123.16h-.13l-376.8,0a61.46,61.46,0,0,1-24-118,71.6,71.6,0,0,1,113.36-57.54C181.75,54.26,244.42,7.37,317.85,7.37M182.58,183.5a5.58,5.58,0,0,1-5.58-5.58,60.5,60.5,0,0,0-120.85-4.27,61.63,61.63,0,0,1,12.68-1.32,5.59,5.59,0,1,1,0,11.17,50.3,50.3,0,0,0,0,100.59l376.74,0a58,58,0,0,0,36.59-101.84h-.06c-1.7-1.46-3.33-2.71-4.81-3.75v0A57.74,57.74,0,0,0,444.21,168h-1.32a5.59,5.59,0,0,1-.19-11.17h1.51a68.86,68.86,0,0,1,32.4,8.08c-6.18-82.18-75-147.16-158.76-147.16-70.28,0-130,45.78-151.11,109.08a71.42,71.42,0,0,1,21.43,51,5.58,5.58,0,0,1-5.59,5.58M317.85,0A177.29,177.29,0,0,0,154.57,108.68,79.06,79.06,0,0,0,37.64,172.44,68.83,68.83,0,0,0,68.83,302.63l376.8,0h.29a76.51,76.51,0,0,0,48.73-134.08A177.22,177.22,0,0,0,317.85,0ZM175.18,125a151.89,151.89,0,0,1,292.66,28.23,76.44,76.44,0,0,0-23.63-3.76l-1.67,0a13,13,0,0,0,.35,25.9h1.32a50.24,50.24,0,0,1,28.3,8.69l.53.37c1.47,1,2.9,2.15,4.25,3.31l1.31,1.13a50.61,50.61,0,0,1-33.12,87.77l-376.65,0a42.93,42.93,0,0,1,0-85.85,13,13,0,1,0,0-25.91c-1.29,0-2.59,0-3.89.11a53.13,53.13,0,0,1,104.69,12.85,13,13,0,0,0,25.91,0A78.37,78.37,0,0,0,175.18,125Z"/></g></g></svg>