<svg xmlns="http://www.w3.org/2000/svg" viewBox="0 0 745.03 960.92"><defs><style>.cls-1,.cls-4{fill:#fff;}.cls-2{fill:#444;}.cls-3{fill:#ed7b22;}.cls-4{stroke:#fff;stroke-width:11px;}.cls-4,.cls-5,.cls-7{stroke-miterlimit:10;}.cls-5,.cls-7{fill:none;stroke:#444;}.cls-5{stroke-linecap:round;stroke-width:5.16px;}.cls-6{opacity:0.05;}.cls-7{stroke-width:6px;}</style></defs><title>Asset 9</title><g id="Layer_2" data-name="Layer 2"><g id="phone"><polygon class="cls-1" points="18.54 251 18.54 198.52 56.15 173.66 56.15 141.54 88.27 120.16 141.75 114.49 159.99 126.45 212.61 44.06 274.48 17.79 349.97 15.1 445.59 72.97 478.93 137.77 493.4 188.1 510.32 246.52 463.44 292.52 149.92 292.52 37.32 281.2 18.54 251"/><path class="cls-2" d="M68.83,298.94A65.14,65.14,0,0,1,41.21,174.8a75.59,75.59,0,0,1,75.28-72.24A74.63,74.63,0,0,1,156.38,114,173.35,173.35,0,0,1,491,170.27a72.82,72.82,0,0,1-45.2,128.63Zm0-130.29a9.27,9.27,0,0,1,0,18.54,46.61,46.61,0,1,0,0,93.21l376.74,0a54.3,54.3,0,0,0,35.11-94.55h0l-1-.83c-1.44-1.24-3-2.43-4.53-3.53l-.57-.41a54,54,0,0,0-30.38-9.33l-1.19,0h-.13a9.27,9.27,0,0,1-.28-18.54l1.6,0a72.91,72.91,0,0,1,28.11,5.67A155.56,155.56,0,0,0,171,125.9a74.74,74.74,0,0,1,20.89,52,9.27,9.27,0,1,1-18.54,0,56.82,56.82,0,0,0-113-8.72A65.15,65.15,0,0,1,68.83,168.65Z"/><path class="cls-1" d="M317.85,7.37c91.88,0,166.93,73.43,169.56,164.69a69.15,69.15,0,0,1-41.65,123.16h-.13l-376.8,0a61.46,61.46,0,0,1-24-118,71.6,71.6,0,0,1,113.36-57.54C181.75,54.26,244.42,7.37,317.85,7.37M182.58,183.5a5.58,5.58,0,0,1-5.58-5.58,60.5,60.5,0,0,0-120.85-4.27,61.63,61.63,0,0,1,12.68-1.32,5.59,5.59,0,1,1,0,11.17,50.3,50.3,0,0,0,0,100.59l376.74,0a58,58,0,0,0,36.59-101.84h-.06c-1.7-1.46-3.33-2.71-4.81-3.75v0A57.74,57.74,0,0,0,444.21,168h-1.32a5.59,5.59,0,0,1-.19-11.17h1.51a68.86,68.86,0,0,1,32.4,8.08c-6.18-82.18-75-147.16-158.76-147.16-70.28,0-130,45.78-151.11,109.08a71.42,71.42,0,0,1,21.43,51,5.58,5.58,0,0,1-5.59,5.58M317.85,0A177.29,177.29,0,0,0,154.57,108.68,79.06,79.06,0,0,0,37.64,172.44,68.83,68.83,0,0,0,68.83,302.63l376.8,0h.29a76.51,76.51,0,0,0,48.73-134.08A177.22,177.22,0,0,0,317.85,0ZM175.18,125a151.89,151.89,0,0,1,292.66,28.23,76.44,76.44,0,0,0-23.63-3.76l-1.67,0a13,13,0,0,0,.35,25.9h1.32a50.24,50.24,0,0,1,28.3,8.69l.53.37c1.47,1,2.9,2.15,4.25,3.31l1.31,1.13a50.61,50.61,0,0,1-33.12,87.77l-376.65,0a42.93,42.93,0,0,1,0-85.85,13,13,0,1,0,0-25.91c-1.29,0-2.59,0-3.89.11a53.13,53.13,0,0,1,104.69,12.85,13,13,0,0,0,25.91,0A78.37,78.37,0,0,0,175.18,125Z"/><polygon class="cls-1" points="733.16 786.41 733.16 752.8 709.07 736.88 709.07 716.32 688.5 702.63 654.26 699 642.58 706.65 608.89 653.9 569.27 637.08 520.93 635.36 459.7 672.41 438.35 713.91 429.09 746.13 418.25 783.54 448.27 813 649.03 813 721.13 805.75 733.16 786.41"/><path class="cls-2" d="M459.54,817.09a46.64,46.64,0,0,1-28.94-82.37,111,111,0,0,1,214.29-36,47.86,47.86,0,0,1,25.55-7.34,48.4,48.4,0,0,1,48.2,46.26A41.71,41.71,0,0,1,701,817.11Zm-22.35-72.37a34.76,34.76,0,0,0,22.58,60.5l241.18,0a29.85,29.85,0,1,0,0-59.69,5.94,5.94,0,0,1,0-11.87,42.92,42.92,0,0,1,5.43.35,36.38,36.38,0,0,0-72.33,5.58,5.94,5.94,0,1,1-11.87,0,47.84,47.84,0,0,1,13.38-33.3,99.5,99.5,0,0,0-94.06-66.87c-50.43,0-93.1,38.32-98.92,88a46.74,46.74,0,0,1,18-3.62h1a5.94,5.94,0,0,1-.17,11.87h-.85a34.53,34.53,0,0,0-19.47,6l-.35.24c-1,.71-2,1.47-2.9,2.26l-.66.58Z"/><path class="cls-1" d="M541.5,630.41a108.8,108.8,0,0,1,102.23,71.91,45.86,45.86,0,0,1,72.59,36.85A39.35,39.35,0,0,1,701,814.75l-241.28,0h-.07a44.28,44.28,0,0,1-26.68-78.87A108.76,108.76,0,0,1,541.5,630.41M439.84,731.31a44,44,0,0,1,20.74-5.17h1a3.58,3.58,0,0,1-.12,7.15h-.85a37,37,0,0,0-21.17,6.65h0c-.94.67-2,1.47-3.08,2.41h0a37.12,37.12,0,0,0,23.43,65.21l241.23,0a32.21,32.21,0,1,0,0-64.41,3.58,3.58,0,0,1,0-7.15,39.45,39.45,0,0,1,8.12.84,38.74,38.74,0,0,0-77.38,2.73,3.58,3.58,0,1,1-7.15,0,45.79,45.79,0,0,1,13.72-32.69,102,102,0,0,0-198.42,24.39M541.5,625.69a113.48,113.48,0,0,0-113.21,107.9,49,49,0,0,0,31.2,85.85h.14l241.32,0a44.07,44.07,0,0,0,20-83.36A50.78,50.78,0,0,0,670.44,689a50.08,50.08,0,0,0-24.39,6.28A113.51,113.51,0,0,0,541.5,625.69Zm-96,98.13a97.25,97.25,0,0,1,187.39-18.07,50.19,50.19,0,0,0-13,33.86,8.3,8.3,0,1,0,16.59,0,34,34,0,0,1,67-8.22c-.83,0-1.66-.07-2.49-.07a8.3,8.3,0,0,0,0,16.59,27.49,27.49,0,1,1,0,55l-241.18,0a32.4,32.4,0,0,1-21.21-56.2l.84-.73c.87-.75,1.78-1.46,2.72-2.12l.35-.24A32.15,32.15,0,0,1,460.58,738h.85a8.3,8.3,0,0,0,.23-16.59h-1.08a49.09,49.09,0,0,0-15.12,2.4Z"/><path class="cls-2" d="M339.39,899.37a8,8,0,0,1-8-8V671.21a8,8,0,0,1,16,0V891.37A8,8,0,0,1,339.39,899.37Z"/><path class="cls-1" d="M339.39,665.71a5.5,5.5,0,0,1,5.5,5.5V891.37a5.5,5.5,0,0,1-11,0V671.21a5.5,5.5,0,0,1,5.5-5.5m0-5a10.51,10.51,0,0,0-10.5,10.5V891.37a10.5,10.5,0,0,0,21,0V671.21a10.51,10.51,0,0,0-10.5-10.5Z"/><path class="cls-2" d="M407.94,868.35a8,8,0,0,1-8-8V640.18a8,8,0,0,1,16,0V860.35A8,8,0,0,1,407.94,868.35Z"/><path class="cls-1" d="M407.94,634.68a5.5,5.5,0,0,1,5.5,5.5V860.35a5.5,5.5,0,0,1-11,0V640.18a5.51,5.51,0,0,1,5.5-5.5m0-5a10.52,10.52,0,0,0-10.5,10.5V860.35a10.5,10.5,0,0,0,21,0V640.18a10.52,10.52,0,0,0-10.5-10.5Z"/><path class="cls-2" d="M476.5,958.42a8,8,0,0,1-8-8V730.26a8,8,0,0,1,16,0V950.42A8,8,0,0,1,476.5,958.42Z"/><path class="cls-1" d="M476.5,724.76a5.5,5.5,0,0,1,5.5,5.5V950.42a5.5,5.5,0,1,1-11,0V730.26a5.5,5.5,0,0,1,5.5-5.5m0-5a10.51,10.51,0,0,0-10.5,10.5V950.42a10.5,10.5,0,1,0,21,0V730.26a10.51,10.51,0,0,0-10.5-10.5Z"/><path class="cls-2" d="M275.56,751.72a8,8,0,0,1-8-8V671.21a8,8,0,0,1,16,0v72.51A8,8,0,0,1,275.56,751.72Z"/><path class="cls-1" d="M275.56,665.71a5.5,5.5,0,0,1,5.5,5.5v72.51a5.5,5.5,0,0,1-11,0V671.21a5.5,5.5,0,0,1,5.5-5.5m0-5a10.51,10.51,0,0,0-10.5,10.5v72.51a10.5,10.5,0,0,0,21,0V671.21a10.51,10.51,0,0,0-10.5-10.5Z"/><path class="cls-2" d="M528.87,751.72a8,8,0,0,1-8-8V648.33a8,8,0,0,1,16,0v95.39A8,8,0,0,1,528.87,751.72Z"/><path class="cls-1" d="M528.87,642.83a5.5,5.5,0,0,1,5.5,5.5v95.39a5.5,5.5,0,0,1-11,0V648.33a5.5,5.5,0,0,1,5.5-5.5m0-5a10.51,10.51,0,0,0-10.5,10.5v95.39a10.5,10.5,0,0,0,21,0V648.33a10.51,10.51,0,0,0-10.5-10.5Z"/><path class="cls-3" d="M315,275.38l204.54,5.95,53.62,332.42-5-.32c-17.69-1.12-36-1.69-54.34-1.69-145.38,0-263.84,35.47-265,35.83l-6.35,1.93Z"/><path class="cls-1" d="M318.25,279.48l197.84,5.75,52.29,324.21c-18.52-1.17-36.76-1.7-54.58-1.7-147.66,0-266.19,36-266.19,36l70.64-364.26m-6.56-8.2-1.3,6.67L239.76,642.22l-2.53,13,12.7-3.86c.3-.09,30-9,77.14-17.84,43.48-8.13,111.18-17.82,186.73-17.82,18.28,0,36.48.57,54.07,1.69l10,.63-1.6-9.89L524,284l-1.05-6.53-6.61-.19-197.84-5.75-6.79-.2Z"/><path class="cls-2" d="M326.45,289.72,507.53,295l49,303.79c-14-.68-28.36-1-42.73-1-77,0-146,9.88-190.31,18.17-27.88,5.22-49.5,10.4-63,13.91l65.95-340.1m-8.2-10.24L247.61,643.74s118.53-36,266.19-36c17.82,0,36.06.53,54.58,1.7L516.09,285.23l-197.84-5.75Z"/><path class="cls-4" d="M518.6,282.49V252.61a101,101,0,0,0-8-39.44c-3.58-62.22-53.4-60.56-53.4-60.56s-28.13-33.19-73.63-21c-42.45,11.33-71,51.92-67.53,95.72q.36,4.53,1.15,9.29a102.09,102.09,0,0,0-1.27,16v28.63"/><polygon class="cls-1" points="347 167.48 319.2 230.67 319.24 288.81 320.78 309.88 320.78 318.11 330.04 320.17 415.38 331.48 514.09 318.11 514.09 264.64 512.03 231.74 496.61 197.81 469.77 177.25 347 167.48"/><path class="cls-3" d="M401.36,328.37l-79.48-11.75v88.25H513.34V316.62l-79.49,11.75A111.25,111.25,0,0,1,401.36,328.37Z"/><path class="cls-5" d="M432.77,233.84a24.12,24.12,0,0,1,29.13,1"/><path class="cls-2" d="M402.05,256.93a12.78,12.78,0,1,0-12.78,12.78A12.78,12.78,0,0,0,402.05,256.93Zm-18.26,0a5.48,5.48,0,1,1,5.48,5.48A5.49,5.49,0,0,1,383.79,256.93Z"/><path class="cls-2" d="M442.63,269.71a12.78,12.78,0,1,0-12.78-12.78A12.78,12.78,0,0,0,442.63,269.71Zm0-18.26a5.48,5.48,0,1,1-5.48,5.48A5.49,5.49,0,0,1,442.63,251.45Z"/><path class="cls-2" d="M417.56,152.88A101.32,101.32,0,0,0,316.24,254.19V412.11H518.88V254.19A101.31,101.31,0,0,0,417.56,152.88ZM509.76,403H325.37V254.19a92.2,92.2,0,0,1,184.39,0Z"/><path class="cls-2" d="M417.49,297.23a26.21,26.21,0,0,1-18.46-8l-.23-.24a4.56,4.56,0,0,1,6.57-6.33l.23.23a17.18,17.18,0,0,0,24.27.43,4.57,4.57,0,0,1,6.34,6.57A26.23,26.23,0,0,1,417.49,297.23Z"/><line class="cls-5" x1="378.52" y1="221.37" x2="405.86" y2="237.51"/><path class="cls-2" d="M409.76,316.62a12.89,12.89,0,0,1-9.07-3.94l-.11-.12a2.24,2.24,0,1,1,3.22-3.11l.12.11a8.44,8.44,0,0,0,11.93.21A2.25,2.25,0,0,1,419,313,12.88,12.88,0,0,1,409.76,316.62Z"/><path class="cls-2" d="M425.41,316.62a12.89,12.89,0,0,1-9.07-3.94l-.12-.12a2.24,2.24,0,1,1,3.23-3.11l.12.11a8.44,8.44,0,0,0,11.93.21,2.24,2.24,0,1,1,3.11,3.23A12.84,12.84,0,0,1,425.41,316.62Z"/><path class="cls-2" d="M457.52,154.19s-28.13-33.19-73.63-21c-42.45,11.33-71,51.92-67.53,95.72.26,3.23.67,6.55,1.26,9.95,0,0,46.32-66.85,137.79-47.89v0C486,181.71,511,216.27,511,216.27,508.16,152.49,457.52,154.19,457.52,154.19Z"/><g class="cls-6"><path class="cls-2" d="M471.73,353.53h-29.9a7.69,7.69,0,0,1-3.52-.86l-14.53-7.59a3,3,0,0,1,2.8-5.37l14.53,7.59a1.63,1.63,0,0,0,.72.18h29.9a3,3,0,1,1,0,6Z"/><path class="cls-2" d="M360.46,350.5a3,3,0,0,1,3-3h29.9a1.63,1.63,0,0,0,.72-.18l14.52-7.59a3,3,0,0,1,2.81,5.37l-14.53,7.59a7.69,7.69,0,0,1-3.52.86h-29.9A3,3,0,0,1,360.46,350.5Z"/><path class="cls-2" d="M393.33,371.49a3,3,0,1,1,0-6.05h21.25V360.5a3,3,0,0,1,6.06,0v4.94h20.43a3,3,0,0,1,0,6.05H420.64V382.1h20.43a3,3,0,0,1,0,6H420.64v4.94a3,3,0,1,1-6.06,0v-4.94H393.33a3,3,0,1,1,0-6h21.25V371.49Z"/></g><g id="White_Border" data-name="White Border"><path class="cls-1" d="M434.49,349.05v33.77H400.73V349.05h33.76m2.84-2.84H397.89v39.45h39.44V346.21Z"/><path id="O" class="cls-1" d="M424.52,366.6c4,0,6.88,2.61,6.88,6.69s-2.9,6.7-6.88,6.7-6.87-2.61-6.87-6.7,2.9-6.69,6.87-6.69m0,10.79a4.1,4.1,0,1,0-3.95-4.1,3.84,3.84,0,0,0,3.95,4.1"/><path id="G" class="cls-1" d="M416.27,372.1h-5v2.6h2.28v2.06a5.45,5.45,0,0,1-2.64.63,4.1,4.1,0,0,1,0-8.2,3.91,3.91,0,0,1,3.09,1.2l2-2.15a7.22,7.22,0,0,0-5.07-1.64c-4,0-6.87,2.61-6.87,6.69s2.89,6.7,6.87,6.7a11.45,11.45,0,0,0,5.34-1.23Z"/><path id="O-2" data-name="O" class="cls-1" d="M424.33,352.18c4,0,6.87,2.61,6.87,6.7s-2.89,6.69-6.87,6.69-6.87-2.61-6.87-6.69,2.89-6.7,6.87-6.7m0,10.8a4.1,4.1,0,1,0-4-4.1,3.85,3.85,0,0,0,4,4.1"/><polygon id="T" class="cls-1" points="409.17 355.07 404.3 355.07 404.3 352.58 416.85 352.58 416.85 355.07 411.98 355.07 411.98 365.25 409.17 365.25 409.17 355.07"/></g><polyline class="cls-7" points="321.41 318.48 416.85 331.55 513.41 318.48"/><path class="cls-2" d="M472.83,178.83c-4.91,42.38-40.06,36.76-40.06,36.76,20.58-5.29,17.58-26.19,17.58-26.19"/><rect class="cls-2" x="534.51" y="150.48" width="50.27" height="79.54" rx="6.12"/><path class="cls-1" d="M578.66,153.48a3.12,3.12,0,0,1,3.12,3.12v67.29a3.12,3.12,0,0,1-3.12,3.12h-38a3.12,3.12,0,0,1-3.12-3.12V156.6a3.12,3.12,0,0,1,3.12-3.12h38m0-6h-38a9.13,9.13,0,0,0-9.12,9.12v67.29a9.13,9.13,0,0,0,9.12,9.12h38a9.13,9.13,0,0,0,9.12-9.12V156.6a9.13,9.13,0,0,0-9.12-9.12Z"/><rect class="cls-1" x="543.59" y="161.04" width="32.11" height="53.34" rx="1.54"/><path class="cls-3" d="M566.05,181.27a11.06,11.06,0,0,0-8.14-1.86,9.41,9.41,0,0,0-5.63,2.59,4.84,4.84,0,0,0-1.51,3.41h17.61A5.08,5.08,0,0,0,566.05,181.27Zm-11.73,2.29c-.16,0-.47-.29-.46-.42a.69.69,0,0,1,.44-.51c.18,0,.41.21.81.44C554.72,183.33,554.52,183.56,554.32,183.56Zm1.75-1.57a.76.76,0,0,1-.48-.52c0-.13.3-.44.47-.44s.41.23.78.48C556.48,181.75,556.25,182,556.07,182Zm1.76,1.57c-.11,0-.44-.26-.46-.43s.19-.4.41-.81c.28.38.55.58.53.75A.75.75,0,0,1,557.83,183.56Zm1.73-1.31c-.24-.37-.47-.58-.46-.78s.34-.46.47-.43a.73.73,0,0,1,.51.48C560.1,181.7,559.82,181.9,559.56,182.25Zm1.76,1.53c-.23-.32-.48-.53-.45-.67s.32-.35.49-.52c.16.19.42.36.45.56S561.56,183.48,561.32,183.78ZM563.1,182a.76.76,0,0,1-.49-.51c0-.13.3-.44.47-.45s.41.23.79.47C563.5,181.75,563.28,182,563.1,182Zm1.71,1.56c-.17,0-.46-.32-.43-.45a.7.7,0,0,1,.49-.47c.17,0,.38.23.76.5C565.22,183.35,565,183.57,564.81,183.55Z"/><path class="cls-3" d="M566.44,188.58c-.07.58-.2,1.13-.93,1.16s-.94-.58-1-1.14h-1.3v.65c0,.23,0,.45,0,.68,0,.61-.42,1-.95.95a.9.9,0,0,1-.91-1c0-.42,0-.84,0-1.3H550.8a4.49,4.49,0,0,0,4.24,5.08c3,.07,6.07.07,9.1,0a4.4,4.4,0,0,0,4.18-5.09Z"/><path class="cls-2" d="M568.85,186.21c-.14-.12-.45-.06-.68-.06H551c-.25,0-.58-.05-.75.07s-.59.52-.59.79.33.58.58.8.4.06.61.06H568.3c.18,0,.44.06.54,0,.27-.23.65-.53.65-.81S569.13,186.42,568.85,186.21Z"/></g></g></svg>