<svg xmlns="http://www.w3.org/2000/svg" viewBox="0 0 350.55 531.86"><defs><style>.cls-1{fill:#ed7b22;}.cls-2,.cls-4{fill:#fff;}.cls-3{fill:#444;}.cls-4{stroke:#fff;stroke-width:11px;}.cls-4,.cls-5,.cls-7{stroke-miterlimit:10;}.cls-5,.cls-7{fill:none;stroke:#444;}.cls-5{stroke-linecap:round;stroke-width:5.16px;}.cls-6{opacity:0.05;}.cls-7{stroke-width:6px;}</style></defs><title>Asset 1</title><g id="Layer_2" data-name="Layer 2"><g id="phone"><path class="cls-1" d="M77.74,152l204.54,6L335.9,490.36l-5-.32c-17.68-1.12-36-1.69-54.33-1.69-145.38,0-263.85,35.47-265,35.83l-6.35,1.93Z"/><path class="cls-2" d="M81,156.08l197.84,5.75,52.29,324.22c-18.52-1.18-36.75-1.7-54.58-1.7-147.66,0-266.19,36-266.19,36L81,156.08m-6.56-8.19-1.3,6.67L2.53,518.83,0,531.86,12.71,528c.29-.09,29.95-9,77.13-17.84C133.33,502,201,492.35,276.57,492.35c18.28,0,36.48.57,54.08,1.68l10,.64-1.6-9.89L286.76,160.56,285.7,154l-6.61-.19L81.25,148.08l-6.79-.19Z"/><path class="cls-3" d="M89.22,166.32l181.08,5.27,49,303.78c-14-.68-28.36-1-42.73-1-77,0-146,9.88-190.31,18.17-27.88,5.22-49.5,10.4-63,13.9l66-340.1M81,156.08,10.38,520.35s118.53-36,266.19-36c17.83,0,36.06.52,54.58,1.7L278.86,161.83,81,156.08Z"/><path class="cls-4" d="M281.37,159.1V129.22a101,101,0,0,0-8-39.44C269.83,27.56,220,29.21,220,29.21S191.89-4,146.38,8.17c-42.45,11.34-71,51.93-67.53,95.72q.36,4.55,1.15,9.29a102.21,102.21,0,0,0-1.26,16v28.63"/><polygon class="cls-2" points="109.77 44.08 81.98 107.28 82.01 165.41 83.55 186.49 83.55 194.72 92.81 196.77 178.15 208.08 276.86 194.72 276.86 141.25 274.8 108.34 259.38 74.41 232.54 53.85 109.77 44.08"/><path class="cls-1" d="M164.14,205,84.65,193.23v88.25H276.11V193.23L196.63,205A111.25,111.25,0,0,1,164.14,205Z"/><path class="cls-5" d="M195.55,110.44a24.1,24.1,0,0,1,29.12,1"/><path class="cls-3" d="M164.82,133.54A12.78,12.78,0,1,0,152,146.32,12.78,12.78,0,0,0,164.82,133.54Zm-18.26,0A5.48,5.48,0,1,1,152,139,5.49,5.49,0,0,1,146.56,133.54Z"/><path class="cls-3" d="M205.4,146.32a12.78,12.78,0,1,0-12.78-12.78A12.78,12.78,0,0,0,205.4,146.32Zm0-18.26a5.48,5.48,0,1,1-5.47,5.48A5.49,5.49,0,0,1,205.4,128.06Z"/><path class="cls-3" d="M180.34,29.48A101.32,101.32,0,0,0,79,130.8V288.71H281.66V130.8A101.32,101.32,0,0,0,180.34,29.48Zm92.19,250.11H88.14V130.8a92.2,92.2,0,0,1,184.39,0Z"/><path class="cls-3" d="M180.26,173.83a26.18,26.18,0,0,1-18.45-8l-.23-.24a4.56,4.56,0,1,1,6.56-6.34l.23.24a17.19,17.19,0,0,0,24.27.43,4.57,4.57,0,1,1,6.34,6.57A26.2,26.2,0,0,1,180.26,173.83Z"/><line class="cls-5" x1="141.29" y1="97.97" x2="168.64" y2="114.12"/><path class="cls-3" d="M172.53,193.23a12.91,12.91,0,0,1-9.07-3.94l-.11-.12a2.25,2.25,0,0,1,3.23-3.12l.11.12a8.44,8.44,0,0,0,11.93.21,2.25,2.25,0,0,1,3.12,3.23A13,13,0,0,1,172.53,193.23Z"/><path class="cls-3" d="M188.18,193.23a12.89,12.89,0,0,1-9.07-3.94l-.11-.12a2.25,2.25,0,0,1,3.23-3.12l.11.12a8.44,8.44,0,0,0,11.93.21,2.25,2.25,0,0,1,3.12,3.23A13,13,0,0,1,188.18,193.23Z"/><path class="cls-3" d="M220.29,30.8s-28.12-33.19-73.63-21c-42.45,11.33-71,51.92-67.53,95.72.26,3.23.67,6.55,1.26,10,0,0,46.33-66.86,137.79-47.9v0c30.62-9.24,55.61,25.32,55.61,25.32C270.94,29.1,220.29,30.8,220.29,30.8Z"/><g class="cls-6"><path class="cls-3" d="M234.5,230.14H204.6a7.58,7.58,0,0,1-3.52-.87l-14.53-7.59a3,3,0,1,1,2.81-5.36l14.52,7.59a1.62,1.62,0,0,0,.72.17h29.9a3,3,0,1,1,0,6.06Z"/><path class="cls-3" d="M123.23,227.11a3,3,0,0,1,3-3h29.91a1.61,1.61,0,0,0,.71-.17l14.53-7.59a3,3,0,1,1,2.8,5.36l-14.53,7.59a7.57,7.57,0,0,1-3.51.87H126.26A3,3,0,0,1,123.23,227.11Z"/><path class="cls-3" d="M156.1,248.1a3,3,0,1,1,0-6.06h21.25v-4.93a3,3,0,0,1,6.06,0V242h20.43a3,3,0,1,1,0,6.06H183.41v10.61h20.43a3,3,0,1,1,0,6.05H183.41v4.94a3,3,0,0,1-6.06,0v-4.94H156.1a3,3,0,1,1,0-6.05h21.25V248.1Z"/></g><g id="White_Border" data-name="White Border"><path class="cls-2" d="M197.26,225.66v33.77H163.5V225.66h33.76m2.84-2.84H160.66v39.45H200.1V222.82Z"/><path id="O" class="cls-2" d="M187.3,243.2c4,0,6.87,2.61,6.87,6.7s-2.9,6.69-6.87,6.69-6.88-2.61-6.88-6.69,2.9-6.7,6.88-6.7m0,10.8a4.1,4.1,0,1,0-4-4.1,3.85,3.85,0,0,0,4,4.1"/><path id="G" class="cls-2" d="M179.05,248.71h-5v2.59h2.29v2.07a5.53,5.53,0,0,1-2.65.63,4.1,4.1,0,0,1,0-8.2,3.94,3.94,0,0,1,3.1,1.2l2-2.16a7.27,7.27,0,0,0-5.08-1.64c-4,0-6.87,2.61-6.87,6.7s2.9,6.69,6.87,6.69a11.51,11.51,0,0,0,5.35-1.22Z"/><path id="O-2" data-name="O" class="cls-2" d="M187.1,228.79c4,0,6.87,2.61,6.87,6.69s-2.89,6.7-6.87,6.7-6.87-2.61-6.87-6.7,2.89-6.69,6.87-6.69m0,10.79a4.1,4.1,0,1,0-4-4.1,3.84,3.84,0,0,0,4,4.1"/><polygon id="T" class="cls-2" points="171.94 231.67 167.07 231.67 167.07 229.19 179.62 229.19 179.62 231.67 174.75 231.67 174.75 241.85 171.94 241.85 171.94 231.67"/></g><polyline class="cls-7" points="84.18 195.08 179.62 208.16 276.18 195.08"/><path class="cls-3" d="M235.6,55.44c-4.91,42.38-40,36.76-40,36.76C216.12,86.91,213.12,66,213.12,66"/><rect class="cls-3" x="297.28" y="27.08" width="50.27" height="79.54" rx="6.12"/><path class="cls-2" d="M341.43,30.08a3.12,3.12,0,0,1,3.12,3.12v67.3a3.12,3.12,0,0,1-3.12,3.12h-38a3.13,3.13,0,0,1-3.13-3.12V33.2a3.13,3.13,0,0,1,3.13-3.12h38m0-6h-38a9.14,9.14,0,0,0-9.13,9.12v67.3a9.14,9.14,0,0,0,9.13,9.12h38a9.13,9.13,0,0,0,9.12-9.12V33.2a9.13,9.13,0,0,0-9.12-9.12Z"/><rect class="cls-2" x="306.36" y="37.65" width="32.11" height="53.34" rx="1.54"/><path class="cls-1" d="M328.83,57.87A11.09,11.09,0,0,0,320.68,56a9.3,9.3,0,0,0-5.62,2.59,4.78,4.78,0,0,0-1.52,3.4h17.61A5.08,5.08,0,0,0,328.83,57.87Zm-11.73,2.3c-.17,0-.48-.29-.47-.43a.74.74,0,0,1,.45-.51c.17,0,.4.21.8.45C317.5,59.93,317.3,60.17,317.1,60.17Zm1.74-1.58a.77.77,0,0,1-.48-.51c0-.13.3-.44.47-.44s.42.23.79.47C319.25,58.36,319,58.62,318.84,58.59Zm1.76,1.58c-.11,0-.44-.26-.46-.43s.19-.4.42-.81c.28.37.54.58.52.75S320.8,60.1,320.6,60.17Zm1.73-1.31c-.24-.37-.47-.58-.46-.78s.34-.46.47-.43a.73.73,0,0,1,.51.48C322.87,58.3,322.59,58.51,322.33,58.86Zm1.76,1.53c-.22-.32-.48-.53-.45-.68s.32-.34.5-.51c.16.18.41.35.44.55S324.33,60.09,324.09,60.39Zm1.78-1.8a.71.71,0,0,1-.48-.5c0-.13.29-.45.46-.45s.41.23.79.46C326.27,58.35,326.05,58.62,325.87,58.59Zm1.71,1.57c-.17,0-.46-.33-.43-.45a.76.76,0,0,1,.49-.48c.17,0,.38.24.76.5C328,60,327.78,60.18,327.58,60.16Z"/><path class="cls-1" d="M329.21,65.18c-.07.59-.2,1.14-.93,1.17s-.94-.58-1-1.15H326v.66c0,.22,0,.45,0,.67-.05.61-.41,1-.94,1a.91.91,0,0,1-.92-1c0-.42,0-.85,0-1.3h-10.5a4.48,4.48,0,0,0,4.24,5.08q4.55.09,9.09,0a4.42,4.42,0,0,0,4.19-5.1Z"/><path class="cls-3" d="M331.63,62.81c-.15-.11-.45-.05-.69-.05H313.79c-.25,0-.57-.06-.75.07s-.58.52-.58.79.32.58.57.8.4,0,.61,0h17.43c.19,0,.44,0,.55,0s.64-.54.64-.81S331.9,63,331.63,62.81Z"/></g></g></svg>